Formula One 2011 Season

Monaco Qualifiyng In High Definition

Race 6: Monaco Grand Prix, Monte Carlo

Record Source: BBC One HD
Original Format: MPEG TS Stream
Date: Saturday 28th May 2011
Time: 12:10 to 14:45


Jake Humphrey, Martin Brundle, David Coulthard & Eddie Jordan present the BBC F1 coverage of the Qualifying Session 
for the 6th Race meeting of the 2011 Formula One Season, This time its one of the seasons most prestigious races,
the Monaco Grand Prix, Monte Carlo.

Complete name                    : F1 2011 Monaco Qualifying HD 1080p H264 AC3 DD.mkv
Format                           : Matroska
File size                        : 3.35 GiB
Duration                         : 2h 33mn
Overall bit rate                 : 3 127 Kbps
Writing application              : HandBrake 0.9.5
Writing library                  : libmkv 0.6.4.1

Video
ID                               : 1
Format                           : AVC
Format/Info                      : Advanced Video Codec
Format profile                   : Main@L4.0
Format settings, CABAC           : Yes
Format settings, ReFrames        : 4 frames
Codec ID                         : V_MPEG4/ISO/AVC
Duration                         : 2h 33mn
Bit rate                         : 3 000 Kbps
Width                            : 1 440 pixels
Height                           : 1 080 pixels
Display aspect ratio             : 16:9
Frame rate mode                  : Variable
Frame rate                       : 25.000 fps
Color space                      : YUV
Chroma subsampling               : 4:2:0
Bit depth                        : 8 bits
Scan type                        : Progressive
Bits/(Pixel*Frame)               : 0.077
Stream size                      : 3.15 GiB (94%)
Writing library                  : x264 core 112
Language                         : English
Color primaries                  : BT.709-5, BT.1361, IEC 61966-2-4, SMPTE RP177
Transfer characteristics         : BT.709-5, BT.1361
Matrix coefficients              : BT.709-5, BT.1361, IEC 61966-2-4 709, SMPTE RP177

Audio
ID                               : 2
Format                           : AC-3
Format/Info                      : Audio Coding 3
Mode extension                   : CM (complete main)
Codec ID                         : A_AC3
Duration                         : 2h 33mn
Bit rate mode                    : Constant
Bit rate                         : 128 Kbps
Channel(s)                       : 2 channels
Channel positions                : Front: L R
Sampling rate                    : 48.0 KHz
Bit depth                        : 16 bits
Compression mode                 : Lossy
Stream size                      : 140 MiB (4%)
Language                         : English


Enjoy, TheBlackKnight


